<svg width="1024" height="520" viewBox="0 0 1024 520" fill="none" xmlns="http://www.w3.org/2000/svg">
<path d="M757.117 285.294H786.547V300.99H787.201C791.125 294.45 796.211 289.727 802.461 286.82C808.71 283.768 815.105 282.242 821.645 282.242C829.929 282.242 836.687 283.405 841.919 285.73C847.296 287.91 851.511 291.035 854.563 295.104C857.615 299.028 859.722 303.897 860.885 309.71C862.193 315.378 862.847 321.7 862.847 328.676V398H831.891V334.344C831.891 325.043 830.437 318.139 827.531 313.634C824.624 308.983 819.465 306.658 812.053 306.658C803.623 306.658 797.519 309.201 793.741 314.288C789.962 319.229 788.073 327.441 788.073 338.922V398H757.117V285.294Z" fill="white"/>
<path d="M629.081 320.828C629.081 327.368 629.808 333.763 631.261 340.012C632.86 346.116 635.33 351.639 638.673 356.58C642.016 361.521 646.376 365.518 651.753 368.57C657.13 371.477 663.67 372.93 671.373 372.93C679.076 372.93 685.616 371.477 690.993 368.57C696.37 365.518 700.73 361.521 704.073 356.58C707.416 351.639 709.814 346.116 711.267 340.012C712.866 333.763 713.665 327.368 713.665 320.828C713.665 313.997 712.866 307.385 711.267 300.99C709.814 294.595 707.416 288.927 704.073 283.986C700.73 278.899 696.37 274.903 690.993 271.996C685.616 268.944 679.076 267.418 671.373 267.418C663.67 267.418 657.13 268.944 651.753 271.996C646.376 274.903 642.016 278.899 638.673 283.986C635.33 288.927 632.86 294.595 631.261 300.99C629.808 307.385 629.081 313.997 629.081 320.828ZM594.855 320.828C594.855 309.201 596.599 298.447 600.087 288.564C603.575 278.536 608.589 269.816 615.129 262.404C621.669 254.992 629.662 249.179 639.109 244.964C648.701 240.749 659.456 238.642 671.373 238.642C683.436 238.642 694.19 240.749 703.637 244.964C713.084 249.179 721.077 254.992 727.617 262.404C734.157 269.816 739.171 278.536 742.659 288.564C746.147 298.447 747.891 309.201 747.891 320.828C747.891 332.164 746.147 342.773 742.659 352.656C739.171 362.393 734.157 370.895 727.617 378.162C721.077 385.429 713.084 391.169 703.637 395.384C694.19 399.453 683.436 401.488 671.373 401.488C659.456 401.488 648.701 399.453 639.109 395.384C629.662 391.169 621.669 385.429 615.129 378.162C608.589 370.895 603.575 362.393 600.087 352.656C596.599 342.773 594.855 332.164 594.855 320.828Z" fill="white"/>
<path d="M555.979 341.32C555.979 336.669 555.543 332.237 554.671 328.022C553.799 323.662 552.273 319.883 550.093 316.686C548.059 313.343 545.37 310.655 542.027 308.62C538.685 306.585 534.47 305.568 529.383 305.568C524.297 305.568 520.009 306.585 516.521 308.62C513.033 310.655 510.199 313.343 508.019 316.686C505.985 320.029 504.459 323.88 503.441 328.24C502.569 332.455 502.133 336.887 502.133 341.538C502.133 345.898 502.642 350.258 503.659 354.618C504.677 358.978 506.275 362.902 508.455 366.39C510.781 369.733 513.615 372.494 516.957 374.674C520.445 376.709 524.587 377.726 529.383 377.726C534.47 377.726 538.685 376.709 542.027 374.674C545.515 372.639 548.277 369.951 550.311 366.608C552.346 363.12 553.799 359.196 554.671 354.836C555.543 350.476 555.979 345.971 555.979 341.32ZM556.415 383.612H555.979C552.346 389.716 547.55 394.149 541.591 396.91C535.778 399.526 529.165 400.834 521.753 400.834C513.324 400.834 505.912 399.235 499.517 396.038C493.123 392.695 487.818 388.263 483.603 382.74C479.534 377.072 476.409 370.605 474.229 363.338C472.195 356.071 471.177 348.514 471.177 340.666C471.177 333.109 472.195 325.842 474.229 318.866C476.409 311.745 479.534 305.495 483.603 300.118C487.818 294.741 493.05 290.453 499.299 287.256C505.549 283.913 512.815 282.242 521.099 282.242C527.785 282.242 534.107 283.695 540.065 286.602C546.169 289.363 550.965 293.505 554.453 299.028H554.889V242.348H585.845V398H556.415V383.612Z" fill="white"/>
<path d="M360.386 319.956C360.822 312.689 362.638 306.658 365.836 301.862C369.033 297.066 373.102 293.215 378.044 290.308C382.985 287.401 388.508 285.367 394.612 284.204C400.861 282.896 407.11 282.242 413.36 282.242C419.028 282.242 424.768 282.678 430.582 283.55C436.395 284.277 441.7 285.803 446.496 288.128C451.292 290.453 455.216 293.723 458.268 297.938C461.32 302.007 462.846 307.457 462.846 314.288V372.93C462.846 378.017 463.136 382.885 463.718 387.536C464.299 392.187 465.316 395.675 466.77 398H435.378C434.796 396.256 434.288 394.512 433.852 392.768C433.561 390.879 433.343 388.989 433.198 387.1C428.256 392.187 422.443 395.747 415.758 397.782C409.072 399.817 402.242 400.834 395.266 400.834C389.888 400.834 384.874 400.18 380.224 398.872C375.573 397.564 371.504 395.529 368.016 392.768C364.528 390.007 361.766 386.519 359.732 382.304C357.842 378.089 356.898 373.075 356.898 367.262C356.898 360.867 357.988 355.635 360.168 351.566C362.493 347.351 365.4 344.009 368.888 341.538C372.521 339.067 376.59 337.251 381.096 336.088C385.746 334.78 390.397 333.763 395.048 333.036C399.698 332.309 404.276 331.728 408.782 331.292C413.287 330.856 417.284 330.202 420.772 329.33C424.26 328.458 427.021 327.223 429.056 325.624C431.09 323.88 432.035 321.409 431.89 318.212C431.89 314.869 431.308 312.253 430.146 310.364C429.128 308.329 427.675 306.803 425.786 305.786C424.042 304.623 421.934 303.897 419.464 303.606C417.138 303.17 414.595 302.952 411.834 302.952C405.73 302.952 400.934 304.26 397.446 306.876C393.958 309.492 391.923 313.852 391.342 319.956H360.386ZM431.89 342.846C430.582 344.009 428.91 344.953 426.876 345.68C424.986 346.261 422.879 346.77 420.554 347.206C418.374 347.642 416.048 348.005 413.578 348.296C411.107 348.587 408.636 348.95 406.166 349.386C403.84 349.822 401.515 350.403 399.19 351.13C397.01 351.857 395.048 352.874 393.304 354.182C391.705 355.345 390.397 356.871 389.38 358.76C388.362 360.649 387.854 363.047 387.854 365.954C387.854 368.715 388.362 371.041 389.38 372.93C390.397 374.819 391.778 376.345 393.522 377.508C395.266 378.525 397.3 379.252 399.626 379.688C401.951 380.124 404.349 380.342 406.82 380.342C412.924 380.342 417.647 379.325 420.99 377.29C424.332 375.255 426.803 372.857 428.402 370.096C430 367.189 430.945 364.283 431.236 361.376C431.672 358.469 431.89 356.144 431.89 354.4V342.846Z" fill="white"/>
<path d="M323.278 329.548C321.825 321.7 319.209 315.741 315.43 311.672C311.797 307.603 306.201 305.568 298.644 305.568C293.703 305.568 289.561 306.44 286.218 308.184C283.021 309.783 280.405 311.817 278.37 314.288C276.481 316.759 275.1 319.375 274.228 322.136C273.501 324.897 273.065 327.368 272.92 329.548H323.278ZM272.92 349.168C273.356 359.196 275.899 366.463 280.55 370.968C285.201 375.473 291.886 377.726 300.606 377.726C306.855 377.726 312.233 376.2 316.738 373.148C321.243 369.951 324.005 366.608 325.022 363.12H352.272C347.912 376.636 341.227 386.301 332.216 392.114C323.205 397.927 312.305 400.834 299.516 400.834C290.651 400.834 282.657 399.453 275.536 396.692C268.415 393.785 262.383 389.716 257.442 384.484C252.501 379.252 248.649 373.003 245.888 365.736C243.272 358.469 241.964 350.476 241.964 341.756C241.964 333.327 243.345 325.479 246.106 318.212C248.867 310.945 252.791 304.696 257.878 299.464C262.965 294.087 268.996 289.872 275.972 286.82C283.093 283.768 290.941 282.242 299.516 282.242C309.108 282.242 317.465 284.131 324.586 287.91C331.707 291.543 337.521 296.485 342.026 302.734C346.677 308.983 350.019 316.105 352.054 324.098C354.089 332.091 354.815 340.448 354.234 349.168H272.92Z" fill="white"/>
<path d="M134.226 369.224H164.746C169.687 369.224 174.483 368.425 179.134 366.826C183.785 365.227 187.927 362.611 191.56 358.978C195.193 355.199 198.1 350.331 200.28 344.372C202.46 338.413 203.55 331.147 203.55 322.572C203.55 314.724 202.751 307.675 201.152 301.426C199.699 295.031 197.228 289.581 193.74 285.076C190.252 280.571 185.601 277.155 179.788 274.83C174.12 272.359 167.071 271.124 158.642 271.124H134.226V369.224ZM100 242.348H167.144C177.172 242.348 186.473 243.947 195.048 247.144C203.768 250.341 211.253 255.137 217.502 261.532C223.897 267.927 228.838 275.92 232.326 285.512C235.959 295.104 237.776 306.367 237.776 319.302C237.776 330.638 236.323 341.102 233.416 350.694C230.509 360.286 226.077 368.57 220.118 375.546C214.305 382.522 206.965 388.045 198.1 392.114C189.38 396.038 179.061 398 167.144 398H100V242.348Z" fill="white"/>
<path d="M628.958 220.797H642.958V240.5C642.958 240.5 639.458 241 635.958 242.5C632.458 244 628.958 246.66 628.958 246.66V220.797Z" fill="white"/>
<rect x="628.958" y="133" width="14" height="174" transform="rotate(-90 628.958 133)" fill="white"/>
<rect x="865.958" y="339" width="14" height="32" transform="rotate(-90 865.958 339)" fill="white"/>
<rect x="831.958" y="133" width="14" height="66" transform="rotate(-90 831.958 133)" fill="white"/>
<path d="M883.958 119H897.958V209.972C897.958 209.972 894.958 209.972 889.958 210.291C887.587 210.442 883.958 211 883.958 211L883.958 201.5V119Z" fill="white"/>
<path d="M885.708 229.5C887.349 228.375 888.679 228 890.958 228C893.583 228 897.958 228 897.958 228V339H883.958V233C883.958 233 883.958 230.7 885.708 229.5Z" fill="white"/>
<path d="M628.958 119H642.958V203H628.958V119Z" fill="white"/>
<path d="M802.102 141.589C805.319 122.84 831.086 124.087 833.405 142.174L833.915 146.118C835.2 155.952 837.166 169.962 840.061 183.31C841.715 190.941 843.641 198.201 845.858 204.258C848.137 210.481 850.482 214.747 852.644 216.995L853.023 217.384C856.926 221.3 860.098 222.286 862.583 222.31C865.395 222.336 868.584 221.145 872.312 218.619C877.694 214.974 882.832 213.466 889.841 212.865C895.576 212.374 903.078 212.463 913.372 212.493L917.958 212.5L918.293 212.509C921.727 212.683 924.458 215.523 924.458 219C924.458 222.477 921.727 225.318 918.293 225.492L917.958 225.5L913.218 225.493C902.719 225.465 896.043 225.381 890.95 225.817C885.584 226.277 882.722 227.269 879.604 229.382C874.832 232.614 869.021 235.372 862.458 235.31C855.861 235.246 849.599 232.355 843.829 226.574L843.272 226.006C839.184 221.754 836.092 215.394 833.651 208.727C831.15 201.893 829.076 193.997 827.355 186.065C824.344 172.179 822.318 157.71 821.022 147.786L820.511 143.826C820.357 142.628 819.897 142.027 819.509 141.697C819.061 141.317 818.431 141.072 817.73 141.061C817.036 141.051 816.432 141.273 816 141.627C815.649 141.915 815.161 142.491 814.929 143.712L814.886 143.964C814.153 148.846 813.252 156.763 812.07 166.447C810.9 176.039 809.474 187.186 807.721 198.236C805.971 209.262 803.874 220.33 801.338 229.734C798.961 238.548 795.957 246.889 791.874 252.135L791.476 252.633C782.936 263.002 768.249 267.23 756.389 257.969L755.826 257.518C747.177 250.394 741.643 238.807 735.446 221.864L734.845 220.208C733.956 217.746 732.236 212.294 730.693 207.357C729.289 202.864 728.042 198.835 727.507 197.197L727.323 196.647C726.489 194.265 724.832 193.5 723.458 193.5C722.127 193.5 720.531 194.218 719.674 196.429L719.593 196.647C718.506 199.753 717.507 202.727 716.497 205.186C715.477 207.669 714.225 210.205 712.365 212.365C708.139 217.273 702.372 218.5 695.458 218.5H620.958C617.368 218.5 614.458 215.59 614.458 212C614.458 208.41 617.368 205.5 620.958 205.5H695.458C701.043 205.5 702.003 204.475 702.515 203.882C703.024 203.291 703.643 202.264 704.472 200.247C705.31 198.207 706.136 195.744 707.323 192.352L707.584 191.648C710.401 184.475 716.797 180.5 723.458 180.5C730.334 180.5 736.927 184.736 739.593 192.352L739.814 193.011C740.437 194.907 741.768 199.213 743.102 203.479C744.687 208.554 746.303 213.667 747.071 215.793L747.681 217.467C753.918 234.488 758.453 242.84 764.09 247.482L764.568 247.857C769.57 251.582 776.282 250.632 781.44 244.368L781.66 244.093C783.937 241.146 786.418 235.133 788.786 226.35C791.148 217.59 793.161 207.037 794.881 196.199C796.597 185.385 798 174.423 799.166 164.872C800.32 155.414 801.263 147.154 802.03 142.036L802.102 141.589Z" fill="white"/>
<path d="M802.958 119H831.958V133C831.958 133 827.958 126 817.458 126C806.958 126 802.958 133 802.958 133V119Z" fill="white"/>
</svg>
